<?xml version="1.0" standalone="no"?>
<!DOCTYPE svg PUBLIC "-//W3C//DTD SVG 20010904//EN"
 "http://www.w3.org/TR/2001/REC-SVG-20010904/DTD/svg10.dtd">
<svg version="1.0" xmlns="http://www.w3.org/2000/svg"
 width="860.000000pt" height="1027.000000pt" viewBox="0 0 860.000000 1027.000000"
 preserveAspectRatio="xMidYMid meet">

<g transform="translate(0.000000,1027.000000) scale(0.100000,-0.100000)"
fill="#000000" stroke="none">
<path d="M4291 9856 c-9 -10 -320 -1654 -721 -3806 -11 -58 -24 -141 -30 -185
-52 -381 -207 -612 -451 -670 -83 -19 -303 -20 -402 -1 -411 79 -790 382
-1006 806 -167 328 -239 662 -228 1069 4 170 10 227 31 325 38 177 97 342 191
531 140 284 312 521 550 760 452 453 1021 769 1688 934 l152 38 17 74 c9 40
16 75 14 77 -8 7 -269 -20 -423 -44 -705 -108 -1385 -419 -1943 -886 -153
-129 -364 -338 -479 -476 -82 -98 -88 -108 -123 -217 -44 -137 -91 -345 -115
-515 -22 -157 -25 -680 -5 -830 69 -499 190 -912 397 -1359 57 -125 148 -298
197 -378 11 -18 17 -33 13 -33 -9 0 -144 211 -231 360 -159 276 -327 654 -422
950 -119 370 -182 700 -206 1087 l-11 187 -62 -134 c-104 -226 -172 -411 -234
-629 -33 -120 -36 -177 -14 -348 96 -746 422 -1443 971 -2073 84 -96 335 -348
454 -454 l65 -58 -90 68 c-487 368 -949 885 -1247 1394 -68 115 -192 365 -239
479 l-34 84 -8 -64 c-16 -136 15 -544 64 -824 19 -109 26 -129 77 -220 77
-137 213 -338 318 -470 122 -153 432 -461 594 -589 368 -293 794 -531 1245
-697 72 -27 126 -48 121 -49 -37 -1 -388 118 -595 202 -517 209 -1053 543
-1398 872 -51 49 -93 84 -93 79 0 -21 163 -336 237 -458 498 -822 1263 -1432
2172 -1732 1003 -331 2095 -252 3039 221 401 201 714 427 1038 751 291 291
499 568 697 931 66 121 129 254 121 254 -2 0 -39 -32 -81 -72 -384 -355 -955
-695 -1525 -906 -134 -51 -423 -142 -443 -141 -5 0 44 19 110 43 177 63 317
126 530 235 694 356 1236 850 1604 1463 59 99 83 191 120 463 32 228 55 683
35 663 -3 -4 -33 -69 -68 -145 -204 -456 -516 -900 -916 -1304 -198 -200 -421
-395 -575 -503 l-40 -28 30 27 c17 15 87 79 157 142 70 63 184 176 253 252
565 617 915 1307 1034 2037 37 230 38 273 1 409 -65 247 -177 553 -264 721
l-35 69 -1 -65 c0 -89 -17 -282 -35 -415 -92 -670 -369 -1383 -773 -1987 -62
-94 -95 -134 -54 -65 154 254 313 606 418 925 226 685 269 1375 123 1974 -58
239 -64 255 -144 354 -608 757 -1516 1280 -2478 1428 -126 20 -354 46 -398 46
-4 0 1 -34 10 -76 l17 -76 169 -44 c291 -74 472 -139 722 -259 369 -178 665
-386 943 -665 424 -423 681 -892 766 -1395 20 -119 23 -399 5 -550 -89 -741
-481 -1301 -1053 -1503 -129 -46 -231 -62 -387 -61 -217 0 -326 41 -436 162
-93 103 -158 258 -190 457 -24 148 -732 3948 -750 4027 -7 30 -39 47 -54 29z"/>
<path d="M1350 1010 l0 -320 255 2 256 3 134 298 c74 164 137 307 140 318 6
19 -1 19 -309 19 l-316 0 0 -105 0 -105 65 0 65 0 0 40 0 40 48 0 c26 0 91 3
145 7 80 5 97 4 97 -8 0 -8 -38 -97 -84 -199 l-84 -185 -143 0 -144 0 -3 258
-2 257 -60 0 -60 0 0 -320z"/>
<path d="M2311 1308 c-5 -13 -57 -131 -115 -262 -58 -132 -106 -245 -106 -252
0 -8 10 -34 22 -59 l22 -45 378 0 378 0 25 50 25 49 -118 268 -118 268 -192 3
c-192 2 -192 2 -201 -20z m379 -290 c45 -101 84 -189 87 -195 4 -10 -52 -13
-261 -13 -181 0 -266 3 -266 11 0 5 37 93 82 195 l82 184 97 0 96 0 83 -182z"/>
<path d="M3220 1271 l0 -59 219 -3 c121 -2 222 -7 226 -10 3 -4 -47 -85 -113
-180 -65 -96 -142 -209 -171 -251 l-52 -78 79 0 78 0 182 267 c179 263 182
268 182 320 l0 53 -315 0 -315 0 0 -59z"/>
<path d="M4035 1298 c-9 -18 -62 -139 -119 -268 l-103 -235 25 -52 26 -53 376
0 376 0 22 45 c12 25 22 52 22 59 0 7 -51 130 -114 272 l-115 259 -190 3 -191
2 -15 -32z m382 -278 c45 -102 83 -191 83 -197 0 -10 -60 -13 -266 -13 -209 0
-265 3 -261 13 3 6 42 94 87 194 93 206 77 191 209 189 l64 -1 84 -185z"/>
<path d="M4720 1010 l0 -320 256 2 257 3 138 309 c77 171 139 313 139 318 0 4
-142 8 -315 8 l-315 0 0 -105 0 -105 64 0 65 0 3 43 3 42 139 -2 c76 -1 141
-4 144 -7 2 -3 -33 -90 -80 -193 l-84 -188 -142 -3 -142 -3 -2 258 -3 258 -62
3 -63 3 0 -321z"/>
<path d="M5630 1065 c0 -305 1 -309 77 -346 46 -23 56 -24 288 -24 230 0 242
1 282 23 78 41 78 41 78 342 l-1 265 -150 3 -150 3 -97 -105 c-53 -57 -97
-107 -97 -110 0 -3 32 -6 72 -6 72 0 73 0 118 44 43 42 48 45 110 48 l65 3 0
-185 0 -185 -40 -13 c-56 -19 -385 -13 -408 7 -15 12 -17 43 -17 257 l0 244
-65 0 -65 0 0 -265z"/>
<path d="M6512 1321 c2 -5 68 -149 148 -320 l145 -311 70 3 69 2 76 218 75
217 3 -220 2 -220 70 0 70 0 0 255 0 254 58 3 57 3 3 63 3 62 -175 0 -175 0
-67 -210 c-37 -115 -70 -207 -74 -205 -3 2 -48 96 -100 209 l-95 206 -83 0
c-46 0 -82 -4 -80 -9z"/>
</g>
</svg>
